# xmcd
#
# Track frame offsets: 
#        183
#        14895
#        25910
#        48608
#        58278
#        69680
#        81278
#        94163
#        109055
#        119003
#        132540
#        145375
#        157985
#        173478
#        184680
#        197973
#        208933
#        219528
#
# Disc length: 3083 seconds
#
# Revision: 10
# Processed by: cddbd v1.5.2PL0 Copyright (c) Steve Scherf et al.
# Submitted via: ExactAudioCopy v0.99pb3
#
DISCID=1f0c0912
DTITLE=Various Artist - Blues Legends - Volume 1
DYEAR=1991
DGENRE=Blues
TTITLE0=Muddy Waters - Baby Please Don't Go
TTITLE1=Howlin' Wolf - Red Rooster
TTITLE2=B. B. King - Everyday I Have The Blues
TTITLE3=Bo Diddley - Hey Bo Diddley
TTITLE4=John Lee Hooker - Boogie Chillun
TTITLE5=Muddy Waters - Sittin' Here Drinkin'
TTITLE6=Howlin' Wolf - Back Door Man
TTITLE7=B. B. King - B. B. Boogie
TTITLE8=Bo Diddley - Bring It To Jerome
TTITLE9=John Lee Hooker - Ground Hog Blues
TTITLE10=Muddy Waters - Forty Days And Forty Nights
TTITLE11=Howlin' Wolf - My Mind Is Ramblin'
TTITLE12=B. B. King - How Blue Can You Get
TTITLE13=Bo Diddley - Who Do You Love
TTITLE14=John Lee Hooker - I Love You Baby
TTITLE15=Muddy Waters - Standin' And Cryin'
TTITLE16=Howlin' Wolf - Built For Comfort
TTITLE17=B. B. King - Payin' The Cost To Be The Boss
EXTD=YEAR: 1991\n
EXTT0=
EXTT1=
EXTT2=
EXTT3=
EXTT4=
EXTT5=
EXTT6=
EXTT7=
EXTT8=
EXTT9=
EXTT10=
EXTT11=
EXTT12=
EXTT13=
EXTT14=
EXTT15=
EXTT16=
EXTT17=
PLAYORDER=
